<svg width="310" height="129" viewBox="0 0 310 129" fill="none" xmlns="http://www.w3.org/2000/svg">
<path fill-rule="evenodd" clip-rule="evenodd" d="M157.383 128.757L157.383 -1.40704e-07L160.602 0L160.602 128.757L157.383 128.757Z" fill="white"/>
<path d="M122.865 88.8468H40.6093C18.1812 88.8468 0.000118256 70.9407 0.000118256 48.848C0.000118256 26.7554 18.1812 8.85309 40.6093 8.85309H122.865V13.6196H46.424C26.6673 13.6196 10.6545 29.394 10.6545 48.848C10.6545 68.302 26.6712 84.0764 46.424 84.0764H122.865V88.8429V88.8468Z" fill="white"/>
<path d="M122.865 73.5755H91.5724C83.2033 73.7137 76.3045 67.1497 76.1641 58.9072C76.0237 50.6647 82.6885 43.8702 91.0576 43.7319C91.2292 43.7319 91.4008 43.7319 91.5724 43.7319H122.865V48.4984H97.3832C91.6894 48.4984 87.0759 53.0422 87.0759 58.6499C87.0759 64.2575 91.6894 68.8013 97.3832 68.8013H122.865V73.5716V73.5755Z" fill="white"/>
<path d="M122.865 81.2188H66.0953C50.6947 81.2188 38.2152 68.9204 38.2152 53.7566C38.2152 38.5929 50.6986 26.3021 66.0953 26.2983H122.865V31.0648H71.9021C59.1769 31.2376 49.0061 41.535 49.1816 54.0677C49.3532 66.3547 59.4265 76.2756 71.9021 76.4446H122.865V81.215V81.2188Z" fill="white"/>
<path d="M20.9313 114.554C16.0564 114.554 14.5082 112.656 14.5082 109.522C14.5082 106.388 16.0174 104.548 20.9313 104.548C24.1837 104.548 26.1649 105.355 26.8824 107.198H33.5746C32.7868 101.81 28.6335 99.2018 20.9274 99.2018C11.9343 99.2018 8.08125 102.705 8.08125 109.511C8.08125 116.317 11.9265 119.904 20.9274 119.904C28.6452 119.904 32.7907 117.262 33.5746 111.842H26.8824C26.1649 113.724 24.1876 114.558 20.9313 114.558V114.554Z" fill="white"/>
<path d="M46.7518 102.244C39.4786 102.244 34.8378 104.775 34.8378 111.074C34.8378 117.373 39.4786 119.9 46.7518 119.9C54.025 119.9 58.662 117.369 58.662 111.074C58.662 104.779 54.0484 102.244 46.7518 102.244ZM46.7518 114.984C42.8988 114.984 40.8513 114.097 40.8513 111.074C40.8513 108.051 42.8949 107.16 46.7518 107.16C50.6088 107.16 52.6796 108.059 52.6796 111.062C52.6796 114.066 50.6361 114.98 46.7518 114.98V114.984Z" fill="white"/>
<path d="M72.1863 108.835C67.019 108.485 66.204 108.431 66.204 107.548C66.204 106.665 67.3973 106.572 71.5468 106.572C75.3959 106.572 76.9208 106.714 76.9208 107.894H82.9031C82.9031 103.089 78.3208 102.255 71.8393 102.255C65.3577 102.255 60.1865 103.089 60.1865 107.748C60.1865 111.973 63.8056 112.579 71.6014 112.952C76.7414 113.24 77.5018 113.24 77.5018 114.304C77.5018 115.368 76.7141 115.591 72.0693 115.591C67.1633 115.591 65.7321 115.045 65.7321 113.663H59.7419C59.7419 119.071 65.7555 119.904 72.3891 119.904C79.0228 119.904 83.5115 119.071 83.5115 114.066C83.4842 109.549 79.0189 109.23 72.1863 108.831V108.835Z" fill="white"/>
<path d="M115.041 102.244C110.806 102.244 107.916 103.684 105.885 105.378C104.543 102.935 101.961 102.244 99.5162 102.244C96.4197 102.167 93.4129 103.281 91.1354 105.347V102.528H85.114V119.608H91.1354V109.975C92.6875 108.354 94.8324 107.413 97.0904 107.36C100.144 107.36 100.827 108.938 100.827 112.222V119.608H106.832L106.863 109.772C108.377 108.262 110.432 107.394 112.585 107.36C115.638 107.36 116.352 108.938 116.352 112.222V119.608H122.365V109.66C122.365 103.649 118.512 102.24 115.041 102.24V102.244Z" fill="white"/>
<path d="M269.946 76.6804L278.8 89.6444L268.037 78.8832C265.443 81.4772 262.156 83.3731 258.49 84.2879L258.713 85.2449C258.821 85.7083 258.906 86.1657 258.99 86.6231C259.472 89.2171 259.929 91.6667 264.534 94.3269C268.32 96.5177 268.579 100.857 268.471 102.061C269.067 101.429 269.909 99.9543 270.03 98.0584C270.138 96.3792 269.699 93.8755 267.002 91.4982C263.36 88.2903 263.902 84.5467 264.552 82.6027L264.648 82.3198L286.162 97.0232L271.095 74.9892C270.74 75.579 270.361 76.1448 269.946 76.6925V76.6804Z" fill="white"/>
<path d="M224.564 77.7577C229.704 79.13 231.757 77.7216 233.936 76.229C234.321 75.9642 234.707 75.6994 235.116 75.4466L235.941 74.935C234.556 72.6359 233.605 70.0479 233.208 67.2854L217.786 64.3845H232.997C232.997 62.6812 233.208 61.0321 233.599 59.4492L207.372 64.3784L232.979 69.1933L232.847 69.4581C231.926 71.2938 229.662 74.3332 224.823 74.0202C221.235 73.7975 219.152 75.254 218.039 76.5179C216.78 77.9443 216.329 79.5814 216.311 80.4541C217.087 79.5272 220.338 76.6443 224.564 77.7698V77.7577Z" fill="white"/>
<path d="M242.521 94.321C247.126 91.6608 247.584 89.2112 248.065 86.6172C248.15 86.1778 248.234 85.7325 248.336 85.2811L248.565 84.288C244.899 83.3732 241.612 81.4713 239.018 78.8773L228.255 89.6385L237.11 76.6745C236.7 76.1268 236.321 75.555 235.966 74.9652L220.899 97.0052L242.407 82.3019L242.503 82.5847C243.153 84.5287 243.695 88.2723 240.053 91.4802C237.357 93.8575 236.917 96.3613 237.025 98.0404C237.146 99.9423 237.989 101.417 238.585 102.049C238.482 100.845 238.735 96.5057 242.521 94.315V94.321Z" fill="white"/>
<path d="M241.406 28.8869C239.98 27.629 238.342 27.1776 237.475 27.1596C238.403 27.936 241.286 31.186 240.16 35.4111C238.788 40.5509 240.196 42.6033 241.689 44.782C241.954 45.1672 242.219 45.5524 242.472 45.9616L242.983 46.7801C245.277 45.4019 247.865 44.457 250.628 44.0597L253.53 28.6401V43.8491C257.388 43.8491 260.994 44.9204 264.082 46.7741L264.594 45.9556C264.846 45.5463 265.111 45.1611 265.376 44.776C266.869 42.5972 268.277 40.5449 266.905 35.405C265.779 31.18 268.663 27.93 269.59 27.1536C268.723 27.1776 267.086 27.629 265.659 28.8809C264.395 29.9943 262.932 32.0707 263.161 35.6638C263.468 40.4967 260.446 42.7597 258.622 43.6746L258.351 43.807L253.542 18.222L248.732 43.813L248.467 43.6806C246.637 42.7597 243.609 40.4967 243.916 35.6638C244.145 32.0707 242.682 29.9943 241.418 28.8809L241.406 28.8869Z" fill="white"/>
<path d="M268.038 49.8737L278.801 39.1125L269.946 52.0765C271.565 54.2311 272.763 56.7168 273.432 59.4131L274.371 59.1965C274.84 59.0881 275.304 59.0039 275.767 58.9136C278.362 58.4321 280.811 57.9747 283.472 53.3705C285.663 49.5848 290.003 49.326 291.207 49.4343C290.581 48.8385 289.106 48.0019 287.204 47.8755C285.531 47.7672 283.021 48.2065 280.643 50.9029C277.435 54.5441 273.69 54.0024 271.746 53.3524L271.463 53.2561L286.169 31.7457L264.131 46.8102C265.558 47.6709 266.876 48.7061 268.044 49.8797L268.038 49.8737Z" fill="white"/>
<path d="M258.449 84.294C257.787 84.4565 257.119 84.5949 256.433 84.6912L253.531 100.111V84.9019C251.828 84.9019 250.179 84.6912 248.595 84.3L253.525 110.529L258.455 84.3L258.449 84.294Z" fill="white"/>
<path d="M290.744 80.442C290.72 79.5754 290.269 77.9383 289.017 76.5059C287.903 75.242 285.814 73.7795 282.233 74.0082C277.393 74.3212 275.135 71.2878 274.214 69.4642L274.082 69.1933L299.683 64.3845L273.444 59.4553C273.607 60.1173 273.745 60.7854 273.847 61.4715L289.269 64.3724H274.052C274.052 68.2304 272.974 71.8475 271.114 74.9351L271.933 75.4466C272.342 75.6994 272.728 75.9702 273.113 76.229C275.292 77.7217 277.351 79.13 282.485 77.7578C286.705 76.6263 289.962 79.5152 290.738 80.442H290.744Z" fill="white"/>
<path d="M235.321 53.3464C233.376 53.9964 229.632 54.538 226.424 50.8968C224.046 48.2005 221.548 47.7611 219.862 47.8695C217.96 47.9898 216.485 48.8324 215.859 49.4283C217.069 49.3199 221.403 49.5787 223.594 53.3644C226.255 57.9686 228.705 58.426 231.299 58.9075C231.745 58.9918 232.196 59.0761 232.654 59.1784L233.617 59.4011C234.291 56.7107 235.495 54.2251 237.114 52.0704L228.26 39.1064L239.023 49.8676C240.196 48.694 241.515 47.6648 242.941 46.7982L220.904 31.7336L235.609 53.244L235.327 53.3403L235.321 53.3464Z" fill="white"/>
<path d="M230.506 93.4061C231.782 94.4232 233.125 95.3561 234.533 96.1987C234.684 95.0191 234.997 94.0441 235.406 93.2195C234.642 92.738 233.889 92.2325 233.167 91.6908L230.506 93.4061Z" fill="white"/>
<path d="M272.523 96.1987C273.925 95.3561 275.268 94.4172 276.55 93.4061L273.889 91.6908C273.167 92.2325 272.415 92.738 271.65 93.2195C272.059 94.0441 272.378 95.0191 272.529 96.1987H272.523Z" fill="white"/>
<path d="M279.487 95.308C277.278 97.1617 274.87 98.7807 272.3 100.135C271.638 102.488 270.067 104.059 268.658 105.046C273.636 103.186 278.181 100.436 282.106 96.9932L279.493 95.3019L279.487 95.308Z" fill="white"/>
<path d="M214.097 82.4643C213.796 80.773 213.796 78.5642 214.976 76.4336C214.121 73.7012 213.562 70.8424 213.309 67.8993L210.239 67.2372C210.594 72.6419 211.936 77.7758 214.097 82.4582V82.4643Z" fill="white"/>
<path d="M216.703 68.6335C216.89 70.2826 217.185 71.8956 217.582 73.4725C218.527 72.7322 219.442 72.2748 220.321 71.9739C220.122 71.0951 219.948 70.2044 219.821 69.3016L216.703 68.6335Z" fill="white"/>
<path d="M266.184 102.729C263.265 103.692 260.195 104.33 257.023 104.601L256.36 107.67C259.701 107.453 262.94 106.858 266.034 105.925C266.208 104.902 266.263 103.806 266.178 102.729H266.184Z" fill="white"/>
<path d="M217.474 82.5666C216.655 83.2708 215.915 84.0833 215.319 84.9319C216.884 87.8328 218.78 90.5292 220.941 92.9847L222.633 90.3727C220.628 87.9893 218.894 85.3712 217.48 82.5666H217.474Z" fill="white"/>
<path d="M220.303 80.8092C221.477 83.1745 222.892 85.3894 224.523 87.4357L226.238 84.7755C225.221 83.4153 224.306 81.9768 223.499 80.4722C222.458 80.2375 221.363 80.3939 220.303 80.8092Z" fill="white"/>
<path d="M286.729 71.9739C287.608 72.2688 288.523 72.7322 289.468 73.4725C289.865 71.8956 290.16 70.2826 290.347 68.6335L287.229 69.3016C287.096 70.2044 286.928 71.0951 286.729 71.9739Z" fill="white"/>
<path d="M241.637 99.4848C244.087 100.315 246.651 100.905 249.306 101.206L248.637 98.0885C246.94 97.8418 245.284 97.4746 243.671 96.9871C242.762 97.5589 242.1 98.4376 241.637 99.4848Z" fill="white"/>
<path d="M206.729 66.485L203.701 65.835C204.068 78.4981 209.173 89.9935 217.311 98.6001L218.979 96.0242C211.779 88.1699 207.234 77.8541 206.729 66.491V66.485Z" fill="white"/>
<path d="M234.756 100.135C232.186 98.7806 229.772 97.1616 227.569 95.3079L224.956 96.9991C228.881 100.442 233.426 103.192 238.404 105.052C236.989 104.065 235.424 102.494 234.762 100.141L234.756 100.135Z" fill="white"/>
<path d="M286.747 80.8092C285.687 80.3939 284.592 80.2375 283.55 80.4722C282.744 81.9768 281.829 83.4153 280.812 84.7755L282.527 87.4357C284.158 85.3894 285.573 83.1745 286.747 80.8092Z" fill="white"/>
<path d="M257.751 101.206C260.399 100.905 262.964 100.321 265.42 99.4848C264.962 98.4376 264.294 97.5589 263.385 96.9871C261.778 97.4746 260.122 97.8418 258.419 98.0885L257.751 101.206Z" fill="white"/>
<path d="M223.289 71.4262C224.643 71.3179 225.889 71.3119 227.003 70.8485L222.988 69.9878C223.078 70.4753 223.174 70.9568 223.289 71.4323V71.4262Z" fill="white"/>
<path d="M228.002 82.049L228.737 80.9175C228.339 80.9837 227.864 81.0198 227.316 81.0198C227.539 81.3689 227.767 81.7119 228.002 82.055V82.049Z" fill="white"/>
<path d="M237.121 90.7338C238 89.7046 238.867 88.8259 239.325 87.7125L235.893 89.9273C236.297 90.2042 236.706 90.475 237.121 90.7338Z" fill="white"/>
<path d="M260.321 94.6819C259.93 94.2967 259.623 93.9356 259.388 93.6046L259.105 94.9287C259.515 94.8565 259.918 94.7722 260.321 94.6819Z" fill="white"/>
<path d="M247.951 94.9287L247.668 93.6046C247.433 93.9356 247.126 94.2967 246.735 94.6819C247.138 94.7722 247.542 94.8565 247.951 94.9287Z" fill="white"/>
<path d="M310 64.3664C310 33.1842 284.712 7.90613 253.525 7.90613C222.338 7.90613 197.055 33.1842 197.055 64.3664V64.3845C197.055 95.5668 222.338 120.845 253.525 120.845C284.712 120.845 309.994 95.5668 309.994 64.3845C309.994 64.3845 309.994 64.3725 309.994 64.3664H310ZM307.057 65.0405C306.888 79.3467 301.109 92.2987 291.809 101.796C282.1 111.715 268.568 117.872 253.591 117.872C253.356 117.872 253.121 117.872 252.887 117.866C238.62 117.679 225.696 111.913 216.216 102.639C206.38 93.0209 200.24 79.6416 200.125 64.8238C200.125 64.6854 200.125 64.547 200.125 64.4025V64.3604C200.125 64.1558 200.137 63.9512 200.143 63.7525L224.342 58.5465C223.427 57.8844 222.271 56.7108 221.001 54.6103C219.346 51.8598 214.867 51.264 211.496 51.9983C211.496 51.9983 213.585 45.3236 220.219 45.3176C226.094 45.3116 227.436 49.0552 230.235 50.2107L213.615 24.5054L237.025 39.624C236.845 38.5106 236.857 36.8615 237.447 34.4782C238.217 31.3605 235.472 27.7795 232.571 25.9077C232.571 25.9077 238.771 22.6637 243.466 27.3461C247.626 31.4929 245.922 35.0921 247.09 37.8847L253.525 7.97835L259.96 37.8967C261.121 35.1041 259.424 31.505 263.583 27.3582C268.279 22.6757 274.479 25.9197 274.479 25.9197C271.577 27.7855 268.832 31.3726 269.603 34.4902C270.193 36.8736 270.205 38.5226 270.024 39.6361L293.434 24.5174L276.826 50.2228C279.626 49.0732 280.968 45.3236 286.843 45.3297C293.476 45.3357 295.565 52.0103 295.565 52.0103C292.194 51.276 287.716 51.8719 286.06 54.6224C284.79 56.7289 283.635 57.9025 282.72 58.5585L307.045 63.7886C307.045 63.9812 307.057 64.1738 307.057 64.3725C307.057 64.3725 307.057 64.3965 307.057 64.4146C307.057 64.5831 307.057 64.7576 307.051 64.9262C307.051 64.9683 307.051 65.0044 307.051 65.0465L307.057 65.0405Z" fill="white"/>
<path d="M288.077 96.0242L289.745 98.6001C297.883 89.9935 302.988 78.5041 303.355 65.835L300.327 66.485C299.827 77.8541 295.277 88.1639 288.077 96.0181V96.0242Z" fill="white"/>
<path d="M221.917 98.9612L219.334 100.628C227.942 108.753 239.433 113.851 252.099 114.206L251.448 111.179C240.083 110.679 229.772 106.141 221.917 98.9612Z" fill="white"/>
<path d="M279.734 81.0138C279.186 81.0138 278.717 80.9777 278.314 80.9115L279.048 82.043C279.283 81.7059 279.511 81.3569 279.734 81.0078V81.0138Z" fill="white"/>
<path d="M289.582 82.5666C288.162 85.3712 286.434 87.9893 284.429 90.3727L286.121 92.9847C288.282 90.5292 290.172 87.8268 291.743 84.9319C291.147 84.0893 290.407 83.2708 289.588 82.5666H289.582Z" fill="white"/>
<path d="M285.139 98.9612C277.284 106.147 266.972 110.685 255.607 111.179L254.957 114.206C267.616 113.845 279.108 108.753 287.722 100.628L285.145 98.9612H285.139Z" fill="white"/>
<path d="M296.817 67.2433L293.747 67.9053C293.494 70.8484 292.934 73.7072 292.079 76.4397C293.259 78.5703 293.259 80.7791 292.958 82.4703C295.119 77.7818 296.462 72.648 296.817 67.2493V67.2433Z" fill="white"/>
<path d="M284.062 69.9817L280.047 70.8424C281.16 71.3058 282.406 71.3179 283.761 71.4202C283.869 70.9447 283.971 70.4632 284.062 69.9757V69.9817Z" fill="white"/>
<path d="M271.156 89.9273L267.725 87.7125C268.182 88.8259 269.049 89.7046 269.928 90.7338C270.343 90.475 270.753 90.2042 271.156 89.9273Z" fill="white"/>
<path d="M250.034 104.601C246.861 104.33 243.791 103.692 240.872 102.729C240.788 103.806 240.842 104.908 241.016 105.925C244.11 106.858 247.349 107.453 250.69 107.67L250.028 104.601H250.034Z" fill="white"/>
<path d="M253.525 46.8945C243.881 46.8945 236.038 54.7367 236.038 64.3784C236.038 74.0202 243.881 81.8624 253.525 81.8624C263.168 81.8624 271.012 74.0202 271.012 64.3784C271.012 54.7367 263.168 46.8945 253.525 46.8945ZM256.559 57.4872C256.559 57.4872 257.281 55.2362 260.14 55.1399C262.981 55.0436 264.161 56.6205 264.209 56.6867L264.438 56.9997L264.059 56.9274C264.059 56.9274 262.428 56.6085 260.369 56.777C257.787 56.9876 256.805 57.6557 256.793 57.6617L256.432 57.9145L256.559 57.4932V57.4872ZM253.525 68.3206C255.307 68.3206 255.903 68.0377 255.903 67.3516C255.903 66.9725 255.83 66.6354 255.83 66.6354C255.83 66.6354 256.342 66.9544 256.426 67.7127C256.523 68.5433 255.764 69.6868 253.519 69.6868C251.273 69.6868 250.521 68.5433 250.611 67.7127C250.696 66.9544 251.207 66.6354 251.207 66.6354C251.207 66.6354 251.135 66.9664 251.135 67.3516C251.135 68.0377 251.725 68.3206 253.513 68.3206H253.525ZM242.852 56.6867C242.9 56.6205 244.02 55.1339 246.675 55.1339C246.753 55.1339 246.837 55.1339 246.921 55.1339C249.781 55.2302 250.497 57.4631 250.503 57.4812L250.629 57.9025L250.268 57.6497C250.268 57.6497 249.275 56.9696 246.693 56.7649C244.64 56.6024 243.021 56.9154 243.003 56.9154L242.623 56.9876L242.852 56.6747V56.6867ZM242.918 71.2035C241.925 71.6128 240.637 70.7581 240.029 69.2956C239.427 67.8331 239.74 66.3164 240.733 65.9132C241.726 65.5039 243.015 66.3586 243.617 67.8211C244.219 69.2836 243.906 70.8003 242.912 71.2035H242.918ZM244.67 61.6821C244.67 61.4414 244.706 61.2789 244.718 61.1705C244.76 60.677 244.044 60.5807 243.376 60.671C243.051 60.7191 242.678 60.7914 241.973 61.0442C241.582 61.1886 241.149 61.4594 241.149 61.4594C241.811 60.0992 243.574 59.0279 245.723 58.8414C248.577 58.5946 251.027 59.9909 251.201 61.965C251.237 62.3442 251.183 62.7173 251.057 63.0664C251.057 63.0664 251.057 62.7113 250.936 62.4044C250.9 62.302 250.852 62.2057 250.798 62.1034C250.473 61.4173 249.847 60.7793 248.95 60.5627C247.656 60.2437 247.138 60.7673 247.138 60.7673C247 60.8877 246.909 61.0682 246.909 61.2668C246.909 61.64 247.21 61.9409 247.584 61.9409C247.86 61.9409 248.101 61.7724 248.204 61.5317C248.197 61.652 248.191 61.7062 248.191 61.7062C248.167 62.6571 247.391 63.4215 246.434 63.4215C245.477 63.4215 244.682 62.6331 244.67 61.658V61.6821ZM254.711 76.6022C254.416 76.7767 254.061 76.8971 253.537 76.8971C253.013 76.8971 252.64 76.7707 252.345 76.6022C252.044 76.4397 251.881 76.235 251.881 76.235C251.881 76.235 252.122 76.1508 252.435 76.1026C252.748 76.0425 253.158 76.0124 253.537 76.0124C253.916 76.0124 254.301 76.0425 254.614 76.1026C254.927 76.1508 255.168 76.235 255.168 76.235C255.168 76.235 255.012 76.4397 254.705 76.6022H254.711ZM259.273 72.0341C257.871 73.7975 255.776 74.8086 253.531 74.8086C251.286 74.8086 249.191 73.7975 247.788 72.0341L247.445 71.6068L247.957 71.7994C249.745 72.4674 251.617 72.8105 253.531 72.8105C255.445 72.8105 257.317 72.4674 259.105 71.7994L259.617 71.6068L259.273 72.0341ZM261.362 60.7793C261.224 60.9057 261.127 61.0803 261.127 61.2849C261.127 61.658 261.428 61.959 261.802 61.959C262.079 61.959 262.307 61.7965 262.416 61.5618C262.416 61.5979 262.416 61.64 262.416 61.6821C262.416 62.6571 261.627 63.4456 260.652 63.4456C259.749 63.4456 259.021 62.7414 258.894 61.8567C258.894 61.8567 258.882 61.7664 258.858 61.5918C258.804 61.1224 258.449 61.0201 257.913 61.0803C257.486 61.1284 257.143 61.2969 256.733 61.9229C256.258 62.6511 255.848 65.203 255.848 65.203V62.4706C255.848 62.29 255.848 62.1516 255.854 61.9409C255.939 60.021 258.473 58.6006 261.32 58.8474C263.469 59.0339 265.233 60.1053 265.895 61.4655C265.895 61.4655 265.666 61.315 265.263 61.1404C264.378 60.7312 263.529 60.5566 262.608 60.5025C261.633 60.4483 261.35 60.7733 261.35 60.7733L261.362 60.7793ZM264.137 71.2035C263.144 70.7943 262.831 69.2776 263.433 67.8211C264.035 66.3586 265.329 65.5099 266.322 65.9132C267.316 66.3224 267.629 67.8391 267.027 69.2956C266.425 70.7581 265.13 71.6128 264.137 71.2035Z" fill="white"/>
<g style="mix-blend-mode:multiply" opacity="0.15">
<path d="M259.965 37.8966C260.729 36.061 260.26 33.8822 261.018 31.4327L253.566 7.97827L253.927 9.82598L259.965 37.8966Z" fill="#272525"/>
</g>
<g style="mix-blend-mode:multiply" opacity="0.15">
<path d="M269.609 34.4842C270.199 36.8675 270.211 38.5166 270.031 39.63L273.763 37.2166C273.137 36.1212 272.42 34.9717 272.083 33.2744C271.307 29.3202 274.479 25.9137 274.479 25.9137C271.578 27.7795 268.833 31.3665 269.603 34.4842H269.609Z" fill="#272525"/>
</g>
<g style="mix-blend-mode:multiply" opacity="0.15">
<path d="M280.733 47.2977C280.793 47.2435 280.86 47.1893 280.92 47.1412C281.07 47.0329 281.245 46.9185 281.432 46.8102C281.859 46.5393 282.322 46.2866 282.84 46.0699L293.44 24.5053L276.833 50.2107C278.247 49.6269 279.289 48.387 280.733 47.2977Z" fill="#272525"/>
</g>
<g style="mix-blend-mode:multiply" opacity="0.15">
<path d="M286.067 54.6163C284.797 56.7228 283.641 57.8964 282.726 58.5524L286.723 59.4131L286.825 59.4251C287.578 57.8964 287.789 56.0908 288.716 54.6343C290.22 52.275 295.572 52.0042 295.572 52.0042C292.201 51.2699 287.722 51.8658 286.067 54.6163Z" fill="#272525"/>
</g>
<g style="mix-blend-mode:multiply" opacity="0.15">
<path d="M280.053 70.8484C282.467 71.8535 285.482 70.722 288.932 73.0813C288.938 73.0813 289.311 73.3521 289.317 73.3581L306.972 65.0706H306.942L280.047 70.8544L280.053 70.8484Z" fill="#76777A"/>
</g>
<g style="mix-blend-mode:multiply" opacity="0.15">
<path d="M285.074 83.5958C289.251 82.8615 291.449 84.5949 291.737 84.9199C291.737 84.9199 291.737 84.9138 291.731 84.9078C291.16 84.1976 290.57 83.5055 289.944 82.8735C288.054 81.1281 285.652 79.9485 283.473 80.4842C281.089 81.074 279.44 81.086 278.326 80.9055L280.71 84.6009C282.323 84.5347 283.689 83.8305 285.074 83.5897V83.5958Z" fill="#76777A"/>
</g>
<g style="mix-blend-mode:multiply" opacity="0.15">
<path d="M271.855 90.3787L267.737 87.7245C268.767 90.2162 271.843 91.5644 272.499 95.982C272.499 96.0001 272.511 96.0182 272.517 96.0422L290.744 102.578L271.861 90.3848L271.855 90.3787Z" fill="#76777A"/>
</g>
<g style="mix-blend-mode:multiply" opacity="0.15">
<path d="M263.331 96.9449C261.224 95.675 260.05 94.5194 259.394 93.6046L258.467 97.9199C259.298 98.6723 260.923 98.8528 262.109 99.6713C265.889 102.295 266.045 105.816 266.045 105.925C266.611 102.626 265.943 98.5158 263.331 96.9389V96.9449Z" fill="#76777A"/>
</g>
<g style="mix-blend-mode:multiply" opacity="0.15">
<path d="M247.102 37.8967C246.337 36.061 246.807 33.8823 246.049 31.4327L253.501 7.97833L253.14 9.82604L247.102 37.8967Z" fill="#272525"/>
</g>
<g style="mix-blend-mode:multiply" opacity="0.15">
<path d="M237.459 34.4842C236.869 36.8675 236.857 38.5166 237.038 39.63L233.306 37.2166C233.932 36.1212 234.648 34.9717 234.985 33.2744C235.762 29.3202 232.589 25.9137 232.589 25.9137C235.491 27.7795 238.236 31.3665 237.465 34.4842H237.459Z" fill="#272525"/>
</g>
<g style="mix-blend-mode:multiply" opacity="0.15">
<path d="M226.335 47.2977C226.274 47.2435 226.208 47.1893 226.148 47.1412C225.997 47.0329 225.823 46.9185 225.636 46.8102C225.209 46.5393 224.745 46.2866 224.228 46.0699L213.627 24.5053L230.235 50.2107C228.821 49.6269 227.779 48.387 226.335 47.2977Z" fill="#272525"/>
</g>
<g style="mix-blend-mode:multiply" opacity="0.15">
<path d="M221.001 54.6163C222.271 56.7228 223.427 57.8964 224.342 58.5524L220.345 59.4131L220.243 59.4251C219.484 57.8964 219.279 56.0908 218.352 54.6343C216.848 52.275 211.496 52.0042 211.496 52.0042C214.867 51.2699 219.346 51.8658 221.001 54.6163Z" fill="#272525"/>
</g>
<g style="mix-blend-mode:multiply" opacity="0.15">
<path d="M227.015 70.8484C224.601 71.8535 221.585 70.722 218.136 73.0813C218.13 73.0813 217.757 73.3521 217.751 73.3581L200.095 65.0706H200.125L227.021 70.8544L227.015 70.8484Z" fill="#76777A"/>
</g>
<g style="mix-blend-mode:multiply" opacity="0.15">
<path d="M222.001 83.5958C217.823 82.8615 215.62 84.5949 215.337 84.9199C215.337 84.9199 215.337 84.9138 215.343 84.9078C215.915 84.1976 216.505 83.5055 217.131 82.8735C219.021 81.1281 221.423 79.9485 223.602 80.4842C225.986 81.074 227.635 81.086 228.749 80.9055L226.359 84.6009C224.746 84.5347 223.379 83.8305 221.995 83.5897L222.001 83.5958Z" fill="#76777A"/>
</g>
<g style="mix-blend-mode:multiply" opacity="0.15">
<path d="M235.214 90.3787L239.331 87.7245C238.302 90.2162 235.226 91.5644 234.569 95.982C234.569 96.0001 234.557 96.0182 234.551 96.0422L216.324 102.578L235.207 90.3848L235.214 90.3787Z" fill="#76777A"/>
</g>
<g style="mix-blend-mode:multiply" opacity="0.15">
<path d="M243.737 96.9449C245.844 95.675 247.018 94.5194 247.674 93.6046L248.601 97.9199C247.77 98.6723 246.145 98.8528 244.959 99.6713C241.179 102.295 241.022 105.816 241.022 105.925C240.457 102.626 241.125 98.5158 243.731 96.9389L243.737 96.9449Z" fill="#76777A"/>
</g>
<g style="mix-blend-mode:multiply" opacity="0.15">
<path d="M253.525 69.6988C251.936 69.6988 251.099 69.1271 250.774 68.4951C251.021 69.2535 251.683 70.2887 253.531 70.2887C255.379 70.2887 256.059 69.2234 256.3 68.465C256.294 68.4831 256.276 68.4951 256.27 68.5132C255.939 69.1331 255.102 69.6988 253.525 69.6988Z" fill="#76777A"/>
</g>
<g style="mix-blend-mode:multiply" opacity="0.15">
<path d="M254.717 76.6143C254.423 76.7888 254.067 76.9092 253.544 76.9092C253.02 76.9092 252.647 76.7828 252.352 76.6143C252.051 76.4518 251.894 76.2592 251.888 76.2532C251.888 76.2532 252.075 77.5171 253.544 77.5171C255.012 77.5171 255.175 76.2592 255.181 76.2532C255.181 76.2532 255.018 76.4578 254.723 76.6143H254.717Z" fill="#76777A"/>
</g>
<path d="M290.666 110.625H291.948V110.944H291.491V112.28H291.117V110.944H290.666V110.625ZM293.772 110.625V112.28H293.441V111.636C293.441 111.492 293.441 111.371 293.459 111.275L293.086 112.268H292.809L292.43 111.269C292.442 111.371 292.442 111.492 292.442 111.636V112.28H292.111V110.625H292.484L292.941 111.907L293.393 110.625H293.766H293.772Z" fill="white"/>
</svg>
