<svg width="200" height="90" viewBox="0 0 200 90" fill="none" xmlns="http://www.w3.org/2000/svg">
<g clip-path="url(#clip0_3907_32)">
<path d="M83.1381 2.79972H82.4718L82.9542 0H92.9583L92.4728 2.79972H91.7763V2.45014C91.7763 1.01863 90.9412 0.91315 90.0185 0.91315H88.6979V10.6353H86.5602V0.91315H85.4537C84.4527 0.91315 83.8617 1.13918 83.4667 2.03726L83.1351 2.79671L83.1381 2.79972ZM96.3713 1.58219V10.6534H98.5241V5.72301H103.647V10.6534H105.8V2.10055C105.8 1.10904 105.98 0.822739 106.24 0.500274L106.421 0.274246V0H102.54V0.563561L102.98 0.684109C103.556 0.852876 103.647 1.04877 103.647 1.58219V4.80986H98.5241V2.10055C98.5241 1.10904 98.705 0.822739 98.9643 0.500274L99.1452 0.274246V0H95.2648V0.563561L95.705 0.684109C96.2809 0.852876 96.3713 1.04877 96.3713 1.58219ZM110.982 1.58219V10.6534H117.652V9.74027H113.135V5.69287H116.135V4.77972H113.135V0.91315H114.983C115.909 0.91315 116.741 1.01863 116.741 2.45014V2.79972H117.438L117.923 0H109.876V0.563561L110.316 0.684109C110.892 0.852876 110.982 1.04877 110.982 1.58219ZM25.5981 16.6507L16.9659 37.4603L10.3267 20.5353C9.6905 18.9411 8.87643 16.8164 8.8704 16.7983L8.81612 16.6507H0V18.492L0.183921 18.5282C3.28042 19.134 3.28042 19.5016 3.28042 21.2737V44.2381H5.92164V21.3038L15.1659 44.0964L15.2232 44.2381H17.0292L26.4544 21.5178L26.4936 44.2381H30.9167V22.4129C30.9167 20.683 31.2846 19.5679 31.5951 18.9351C31.9177 18.2751 32.2494 17.9948 32.2494 17.9948L32.373 17.8953L31.9449 16.6537H25.5951L25.5981 16.6507ZM80.8074 38.3493C80.7773 38.3764 77.726 41.1761 72.8205 41.1761C69.7602 41.1761 66.9742 40.0731 64.9752 38.072C62.8616 35.9564 61.746 33.0181 61.746 29.5704C61.746 23.097 65.7501 18.5734 71.4848 18.5734C73.4808 18.5734 75.1994 19.1762 76.4506 20.3093C77.6024 21.3551 78.2326 22.7564 78.2326 24.2572V24.4863H80.4698V17.5488L80.3009 17.5036C78.323 16.9701 75.3351 16.1655 72.1722 16.1655C67.9149 16.1655 64.0677 17.6331 61.333 20.2972C58.6134 22.9463 57.1179 26.6592 57.1179 30.7518C57.1179 34.8444 58.6465 38.512 61.538 41.0918C64.1702 43.4364 67.6858 44.7293 71.4426 44.7293C78.528 44.7293 81.6879 39.9556 81.721 39.9074L81.7873 39.8019L81.0396 38.1383L80.8074 38.3553V38.3493ZM199.717 16.6507H191.202V18.6307L191.407 18.6518C194.525 18.9622 194.525 19.7488 194.525 21.4756V36.8666C194.151 36.3512 193.711 35.7786 193.3 35.2753L176.977 16.729L176.907 16.6507H171.067V18.4951L171.254 18.5282C173.832 18.9983 174.39 19.6885 174.39 22.4129V44.2381H177.031V22.9885L195.306 44.3616L195.375 44.443H197.163V22.009C197.163 18.8507 199.683 18.1093 199.792 18.0822L199.997 18.0249L199.714 16.6567L199.717 16.6507ZM41.557 31.9874C44.0957 31.9874 46.2244 32.3219 47.6173 32.6233L44.0022 22.9734L40.568 32.0085C40.9118 31.9964 41.2434 31.9904 41.557 31.9904M46.0525 16.7953L56.747 44.235H51.9681L48.3681 34.6213C44.8404 33.6781 41.3339 33.7082 39.9108 33.7745L35.9308 44.235H32.9489L43.9872 16.6507H45.9982L46.0555 16.7953H46.0525ZM89.8015 33.8137C92.901 32.8614 96.1 32.6142 97.496 32.5509L93.908 22.9734L90.1572 32.8734L89.7984 33.8137M95.9613 16.7953L106.656 44.235H101.877L101.823 44.0874L98.1683 34.329H98.0568C93.8869 34.329 90.106 35.6068 88.9602 36.0318L85.8396 44.235H82.8577L93.896 16.6507H95.907L95.9643 16.7953H95.9613ZM157.668 31.4509C160.098 31.4509 162.064 31.9211 163.346 32.352L159.83 22.9734L156.595 31.4841C156.957 31.463 157.315 31.454 157.665 31.454M161.883 16.7953L172.578 44.235H167.799L167.745 44.0874L164.211 34.6485C160.644 33.0633 157.273 33.1868 155.913 33.3255L151.762 44.235H148.78L159.818 16.6507H161.829L161.886 16.7953H161.883ZM126.396 36.5803L126.01 39.1087C125.934 39.6633 125.796 40.1183 125.597 40.4709C125.395 40.8266 125.147 41.1038 124.861 41.3027C124.571 41.5046 124.231 41.6372 123.842 41.7005C123.453 41.7638 123.019 41.797 122.539 41.797H114.206V22.003C114.206 20.2701 114.543 19.152 114.827 18.5222C115.122 17.8592 115.424 17.5819 115.427 17.5819L115.544 17.4764L115.231 16.6507H106.785V18.489L106.966 18.5252C109.782 19.0978 109.782 19.3871 109.782 21.2707V44.235H127.746V35.8871H126.501L126.396 36.5803ZM147.534 35.7485L147.429 35.9474C144.96 40.6126 144.049 41.7035 140.766 41.7035H134.977V21.9849C134.977 20.2581 135.311 19.143 135.595 18.5131C135.89 17.8531 136.189 17.5759 136.192 17.5759L136.309 17.4704L135.996 16.6477H127.578V18.48L127.758 18.5162C130.565 19.0888 130.565 19.3751 130.565 21.2526V44.1416H146.205L149.419 36.7129L147.537 35.7424L147.534 35.7485ZM90.8356 89.1663C90.8356 89.2265 90.8748 89.2687 90.9381 89.2687H91.8758C91.9361 89.2687 91.9784 89.2295 91.9784 89.1663V87.2375L93.5583 84.4498C93.6005 84.3745 93.5643 84.3293 93.4829 84.3293H92.4758C92.4216 84.3293 92.3824 84.3504 92.3552 84.4046L91.4296 86.2128L90.504 84.4046C90.4768 84.3504 90.4376 84.3293 90.3834 84.3293H89.3311C89.2497 84.3293 89.2165 84.3775 89.2557 84.4498L90.8356 87.2495V89.1663ZM94.0226 89.1663C94.0226 89.2265 94.0618 89.2687 94.1251 89.2687H97.0347C97.095 89.2687 97.1342 89.2295 97.1342 89.1663V88.3495C97.1342 88.2893 97.095 88.2471 97.0347 88.2471H95.1653V87.2405H96.8266C96.8869 87.2405 96.9291 87.1983 96.9291 87.138V86.3605C96.9291 86.3002 96.8899 86.258 96.8266 86.258H95.1653V85.3389H97.0226C97.0829 85.3389 97.1251 85.2997 97.1251 85.2364V84.4197C97.1251 84.3594 97.0829 84.3172 97.0226 84.3172H94.1251C94.0648 84.3172 94.0226 84.3564 94.0226 84.4197V89.1572M97.6196 89.1512C97.5985 89.2265 97.6407 89.2657 97.707 89.2657H98.6176C98.6718 89.2657 98.7201 89.2326 98.7322 89.1783L99.0216 88.2049H100.547L100.837 89.1783C100.852 89.2326 100.897 89.2657 100.951 89.2657H101.91C101.985 89.2657 102.019 89.2265 101.997 89.1512L100.511 84.4076C100.49 84.3473 100.451 84.3263 100.396 84.3263H99.1874C99.1332 84.3263 99.0849 84.3534 99.0729 84.4076L97.6136 89.1512M99.3352 87.1802L99.3955 86.9843C99.5432 86.4931 99.706 85.8452 99.7814 85.4715H99.8085C99.8749 85.8753 100.044 86.5052 100.179 86.9632L100.246 87.1802H99.3352ZM102.643 89.1663C102.643 89.2265 102.682 89.2687 102.745 89.2687H103.683C103.743 89.2687 103.785 89.2265 103.785 89.1663V87.566H104.313L105.136 89.1934C105.163 89.2476 105.203 89.2687 105.257 89.2687H106.309C106.384 89.2687 106.412 89.2145 106.375 89.1482L105.411 87.3731C105.911 87.123 106.188 86.6438 106.188 86.0501V85.8421C106.188 84.9501 105.616 84.3293 104.554 84.3293H102.745C102.685 84.3293 102.643 84.3715 102.643 84.4317V89.1693M103.782 86.5865V85.3449H104.464C104.862 85.3449 105.046 85.5528 105.046 85.8994V86.041C105.046 86.3786 104.862 86.5865 104.464 86.5865H103.782ZM106.894 88.0783C107.075 88.883 107.705 89.3471 108.73 89.3471C109.873 89.3471 110.545 88.7805 110.545 87.801C110.545 87.0868 110.186 86.6197 109.188 86.3304C108.296 86.0742 108.127 85.9115 108.127 85.6764C108.127 85.372 108.399 85.2515 108.748 85.2515C109.098 85.2515 109.315 85.378 109.445 85.6704C109.472 85.7306 109.511 85.7578 109.574 85.7367L110.385 85.4926C110.446 85.4715 110.473 85.4323 110.452 85.372C110.229 84.6367 109.614 84.2449 108.742 84.2449C107.696 84.2449 106.993 84.8054 106.993 85.7698C106.993 86.4569 107.352 86.9301 108.35 87.2224C109.234 87.4786 109.403 87.6353 109.403 87.8824C109.403 88.1597 109.158 88.3405 108.715 88.3405C108.272 88.3405 108.055 88.1717 107.919 87.8071C107.892 87.7468 107.859 87.7197 107.789 87.7408L106.966 87.9578C106.9 87.9789 106.879 88.018 106.891 88.0783M114.004 89.1663C114.004 89.2265 114.043 89.2687 114.106 89.2687H115.044C115.104 89.2687 115.146 89.2295 115.146 89.1663V87.2375L116.726 84.4498C116.765 84.3745 116.732 84.3293 116.651 84.3293H115.644C115.59 84.3293 115.55 84.3504 115.523 84.4046L114.598 86.2128L113.672 84.4046C113.645 84.3504 113.606 84.3293 113.551 84.3293H112.499C112.418 84.3293 112.384 84.3775 112.424 84.4498L114.004 87.2495V89.1663ZM116.886 87.4243C116.886 88.5183 117.513 89.3471 118.879 89.3471C120.245 89.3471 120.899 88.455 120.899 87.3972V86.1676C120.899 85.1339 120.29 84.2449 118.888 84.2449C117.613 84.2449 116.889 84.9742 116.889 86.1947V87.4243M118.891 88.2953C118.216 88.2953 118.026 87.8915 118.026 87.3972V86.1947C118.026 85.7035 118.216 85.2967 118.891 85.2967C119.566 85.2967 119.756 85.7005 119.756 86.1947V87.3972C119.756 87.8884 119.56 88.2953 118.891 88.2953ZM121.659 87.5057C121.659 88.5515 122.259 89.3471 123.564 89.3471C124.87 89.3471 125.503 88.4912 125.503 87.4786V84.4287C125.503 84.3684 125.464 84.3263 125.401 84.3263H124.463C124.403 84.3263 124.36 84.3684 124.36 84.4287V87.4786C124.36 87.9306 124.186 88.2953 123.576 88.2953C122.967 88.2953 122.802 87.9306 122.802 87.4786V84.4287C122.802 84.3684 122.759 84.3263 122.699 84.3263H121.761C121.701 84.3263 121.659 84.3684 121.659 84.4287V87.5057ZM126.405 89.1663C126.405 89.2265 126.444 89.2687 126.507 89.2687H127.391C127.451 89.2687 127.493 89.2295 127.493 89.1663V86.9C127.493 86.4208 127.466 85.9536 127.418 85.5287H127.439C127.547 85.9326 127.743 86.5082 127.957 87.0054L128.91 89.1934C128.931 89.2476 128.97 89.2687 129.025 89.2687H130.279C130.339 89.2687 130.382 89.2295 130.382 89.1663V84.4287C130.382 84.3684 130.342 84.3263 130.279 84.3263H129.396C129.335 84.3263 129.293 84.3654 129.293 84.4287V86.695C129.293 87.1742 129.32 87.6263 129.368 88.0512H129.347C129.233 87.6474 129.064 87.0868 128.853 86.5865L127.954 84.4076C127.933 84.3534 127.888 84.3263 127.834 84.3263H126.504C126.444 84.3263 126.402 84.3654 126.402 84.4287V89.1663M131.184 87.4243C131.184 88.5183 131.805 89.3471 133.149 89.3471C134.494 89.3471 135.094 88.455 135.094 87.3972V86.5323C135.094 86.472 135.055 86.4298 134.995 86.4298H133.294C133.234 86.4298 133.192 86.469 133.192 86.5323V87.3068C133.192 87.3671 133.234 87.4093 133.294 87.4093H134.009C134.003 87.8945 133.813 88.2923 133.164 88.2923C132.516 88.2923 132.326 87.8884 132.326 87.3942V86.1917C132.326 85.6975 132.507 85.2936 133.149 85.2936C133.662 85.2936 133.837 85.5438 133.939 85.8482C133.96 85.9084 134 85.9356 134.06 85.9145L134.916 85.6643C134.977 85.6432 135.004 85.6041 134.992 85.5438C134.796 84.8295 134.241 84.2419 133.134 84.2419C131.913 84.2419 131.184 84.9652 131.184 86.1646V87.4213M136.406 70.1106C136.406 74.3178 132.851 78.5731 126.055 78.5731C120.239 78.5731 115.704 74.8211 113.283 72.7778L113.177 72.6904L113.078 72.7838C110.793 74.8904 106.49 78.7389 100.641 78.7389C94.7914 78.7389 90.4829 75.0832 88.1401 72.9737L88.0286 72.8742L87.9231 72.9827C86.7803 74.1641 84.4075 76.9156 76.8637 79.3115C73.52 80.3723 71.1592 81.6019 69.8506 82.958C68.8345 84.0098 68.8405 84.7632 68.8436 84.8446L68.8526 85.0285H81.0486C83.5874 85.0285 84.7602 84.3926 86.1984 82.2046L87.5914 82.9219C87.8929 83.0756 88.0225 83.4402 87.8869 83.7506L85.4507 89.3471H63.6033V85.3569C63.6003 85.2937 63.4013 79.0493 75.7059 75.1315C80.9672 73.4559 83.4426 72.3287 85.3904 70.5748L85.514 70.4632L85.3934 70.3487C83.4426 68.5013 79.7009 65.7709 75.9712 65.792C73.8094 65.8071 71.8134 66.3767 70.0225 67.4917C67.8908 68.9383 67.2697 70.4633 67.0948 71.3553H64.939V67.1211C64.939 66.6991 65.1109 66.2983 65.4124 66.006C65.8586 65.5419 69.9501 61.4553 75.9712 61.4553C81.3652 61.4553 85.6406 65.78 87.9864 68.0191L88.0919 68.1216L88.2004 68.0222C90.902 65.4907 94.7553 61.4553 100.481 61.4553C106.207 61.4553 110.358 65.5238 112.975 67.8624L113.084 67.9589L113.186 67.8594C115.502 65.6263 119.669 61.4583 125.404 61.4583C133.092 61.4583 136.415 66.1085 136.415 70.1167L136.406 70.1106ZM110.581 70.3728L110.452 70.2583C108.341 68.3838 104.434 65.789 100.472 65.789C96.51 65.789 92.9492 68.3296 90.7331 70.403L90.6095 70.5205L90.7392 70.635C92.509 72.1871 96.3442 74.4052 100.638 74.4052C104.931 74.4052 108.667 72.0967 110.452 70.4904L110.581 70.3759V70.3728ZM126.055 74.4263C130.186 74.4263 133.55 72.9435 133.55 70.1106C133.55 67.2778 130.264 65.789 125.395 65.789C121.327 65.789 117.625 68.3989 115.798 70.1408L115.671 70.2613L115.807 70.3728C117.658 71.8948 121.749 74.4263 126.055 74.4263Z" fill="white"/>
</g>
<defs>
<clipPath id="clip0_3907_32">
<rect width="200" height="89.3471" fill="white"/>
</clipPath>
</defs>
</svg>
